<?xml version="1.0" encoding="UTF-8"?>
<svg width="286px" height="287px" viewBox="0 0 286 287" version="1.1" xmlns="http://www.w3.org/2000/svg" xmlns:xlink="http://www.w3.org/1999/xlink">
    <!-- Generator: Sketch 48.2 (47327) - http://www.bohemiancoding.com/sketch -->
    <title>handshake</title>
    <desc>Created with Sketch.</desc>
    <defs></defs>
    <g id="Handshake-Icon" stroke="none" stroke-width="1" fill="#000000" fill-rule="evenodd" transform="translate(-577.000000, -369.000000)">
        <g id="handshake" transform="translate(576.435764, 368.500000)" fill="#000000" fill-rule="nonzero">
            <path d="M147.012715,16.7701179 C149.863308,18.6746602 150.630233,22.529459 148.725691,25.3800519 C146.821149,28.2306448 142.96635,28.9975703 140.115757,27.0930279 C107.993334,5.63134697 64.7845231,9.66151093 37.1192844,37.3267496 C9.14991583,65.2961182 5.37425993,109.129978 27.4695803,141.180745 C27.6672158,141.452337 28.0363612,141.950424 28.5274175,142.597369 C29.346312,143.676225 30.1910393,144.753523 31.0076276,145.747262 C31.290208,146.091146 31.5645932,146.419041 31.8290648,146.728541 C32.0914361,147.035584 32.3425404,147.322751 32.5805569,147.587724 C34.8715199,150.138145 34.6611873,154.062863 32.1107658,156.353826 C29.5603443,158.644789 25.6356267,158.434456 23.3446636,155.884035 C23.0352841,155.539617 22.7171817,155.17583 22.3906836,154.793742 C22.0724563,154.421333 21.7472023,154.032649 21.4157175,153.629252 C20.486865,152.498894 19.5470849,151.300374 18.638544,150.103412 C18.093139,149.384865 17.6751718,148.820903 17.3398532,148.356689 C-8.23277511,111.26595 -3.88345963,60.7721305 28.3406028,28.5480681 C60.2130038,-3.32433299 109.987938,-7.96693112 147.012715,16.7701179 Z" id="Shape"></path>
            <path d="M213.41618,191.669166 C210.992014,189.245 210.992014,185.314651 213.41618,182.890485 C215.840346,180.466319 219.770696,180.466319 222.194862,182.890485 L235.565742,196.261365 C240.001156,200.696779 247.196115,200.696779 251.635544,196.261365 L251.976954,195.919954 C256.328854,191.568054 256.424983,184.54818 252.196209,180.078675 L176.974145,100.716232 C174.615754,98.2280294 174.720986,94.2990888 177.209188,91.9406973 C179.697391,89.5823057 183.626331,89.6875382 185.984723,92.1757405 L261.210589,171.542199 C270.063047,180.898592 269.861832,195.59244 260.755636,204.698636 L260.41224,205.042031 C251.122741,214.323131 236.070145,214.323131 226.78706,205.040047 L213.41618,191.669166 Z" id="Shape"></path>
            <path d="M125.526651,252.963635 C123.097976,250.543987 123.090659,246.613644 125.510307,244.184969 C127.929956,241.756294 131.860299,241.748977 134.288974,244.168625 L161.020291,270.800608 C165.455705,275.236022 172.650664,275.236022 177.090093,270.800608 C181.525507,266.365194 181.525507,259.170235 177.090093,254.730806 L164.19098,241.831693 C161.766814,239.407527 161.766814,235.477178 164.19098,233.053012 C166.615146,230.628846 170.545496,230.628846 172.969662,233.053012 L185.87076,245.95411 C195.151859,255.243609 195.151859,270.296205 185.866789,279.581274 C176.57729,288.862374 161.524694,288.862374 152.249789,279.587454 L125.526651,252.963635 Z" id="Shape"></path>
            <path d="M188.834618,216.778363 C186.410452,214.354197 186.410452,210.423848 188.834618,207.999682 C191.258784,205.575516 195.189133,205.575516 197.613299,207.999682 L210.717258,221.103641 C215.152672,225.539055 222.347631,225.539055 226.78706,221.103641 C231.222474,216.668227 231.222474,209.473268 226.78706,205.033839 L213.621026,191.867805 C211.19686,189.443639 211.19686,185.51329 213.621026,183.089124 C216.045192,180.664958 219.975542,180.664958 222.399708,183.089124 L235.567727,196.257143 C244.848826,205.546642 244.848826,220.599238 235.563756,229.884307 C226.274257,239.165407 211.221661,239.165407 201.938577,229.882323 L188.834618,216.778363 Z" id="Shape"></path>
            <path d="M131.986651,221.638809 C127.551237,217.203395 120.356277,217.203395 115.916849,221.638809 L97.2840226,240.271634 C92.8466239,244.713048 92.8466239,251.908007 97.2800522,256.341437 C101.721467,260.778835 108.916426,260.778835 113.35184,256.343421 L131.984666,237.710596 C136.422064,233.269182 136.422064,226.074223 131.986651,221.638809 Z M140.765332,212.860127 C150.048416,222.143211 150.048416,237.195808 140.765332,246.487292 L122.130521,265.122103 C112.847437,274.405187 97.7948407,274.405187 88.5033563,265.122103 C79.2202719,255.839019 79.2202719,240.786422 88.5033563,231.494938 L107.140153,212.858142 C116.429651,203.577043 131.482248,203.577043 140.765332,212.860127 Z" id="Shape"></path>
            <path d="M82.295891,171.948049 C77.8549313,167.507089 70.6630343,167.507089 66.2260891,171.948049 L47.5932631,190.580874 C43.1558643,195.022289 43.1558643,202.217248 47.5892926,206.650677 C52.0307071,211.088076 59.2256663,211.088076 63.6610802,206.652662 L82.2939062,188.019837 C86.7313049,183.578422 86.7313049,176.383463 82.295891,171.948049 Z M91.0745726,163.169368 C100.357657,172.452452 100.357657,187.505048 91.0745726,196.796533 L72.4397618,215.431343 C63.1566775,224.714428 48.1040811,224.714428 38.8125967,215.431343 C29.5295124,206.148259 29.5295124,191.095663 38.8125967,181.804178 L57.4454227,163.171353 C66.7289605,153.879414 81.784619,153.879414 91.0745726,163.169368 Z" id="Shape"></path>
            <path d="M57.4474075,147.099566 C53.0123243,142.664482 45.8126887,142.664482 41.3776055,147.099566 L22.7447796,165.732391 C18.3073808,170.173805 18.3073808,177.368764 22.7408091,181.802194 C27.1822236,186.239592 34.3771828,186.239592 38.8125967,181.804178 L57.4454227,163.171353 C61.8828214,158.729939 61.8828214,151.53498 57.4474075,147.099566 Z M66.2260891,138.320884 C75.5091734,147.603968 75.5091734,162.656565 66.2260891,171.948049 L47.5912783,190.58286 C38.308194,199.865944 23.2555976,199.865944 13.9641132,190.58286 C4.68102888,181.299776 4.68102888,166.247179 13.9641132,156.955695 L32.598924,138.320884 C41.8823391,129.037469 56.9426739,129.037469 66.2260891,138.320884 Z" id="Shape"></path>
            <path d="M91.0745726,196.796533 L72.4417466,215.429358 C68.0043479,219.870772 68.0043479,227.065731 72.4377761,231.499161 C76.8791906,235.936559 84.0741498,235.936559 88.5095637,231.501145 L107.14239,212.86832 C111.579788,208.426906 111.579788,201.231947 107.144374,196.796533 C102.703415,192.355573 95.5115178,192.355573 91.0745726,196.796533 Z M115.923056,221.645016 L97.2882453,240.279827 C88.005161,249.562911 72.9525646,249.562911 63.6610802,240.279827 C54.3779959,230.996743 54.3779959,215.944146 63.6610802,206.652662 L82.2939062,188.019837 C91.577444,178.727898 106.633103,178.727898 115.923056,188.017851 C125.20614,197.300935 125.20614,212.353532 115.923056,221.645016 Z" id="Shape"></path>
            <path d="M177.090093,254.730806 C174.665927,252.30664 174.665927,248.37629 177.090093,245.952124 C179.514259,243.527959 183.444609,243.527959 185.868775,245.952124 C190.304189,250.387538 197.499148,250.387538 201.938577,245.952124 C206.373991,241.516711 206.373991,234.321751 201.936592,229.880337 C199.513523,227.455075 199.5153,223.524726 201.940562,221.101656 C204.365825,218.678587 208.296174,218.680365 210.719243,221.105627 C220.000343,230.395125 220.000343,245.447722 210.715273,254.732791 C201.425774,264.01389 186.373178,264.01389 177.090093,254.730806 Z" id="Shape"></path>
            <path d="M125.772978,78.2388276 C127.73508,76.2767255 130.761062,75.8551469 133.184755,77.206222 C133.84733,77.575571 135.185751,78.2704244 137.103642,79.1825834 C140.345999,80.724666 143.979476,82.2711358 147.905378,83.7145079 C159.917182,88.1306917 171.928098,90.6131332 182.914308,90.2023961 C194.614598,89.764962 204.377725,86.0544118 211.932596,78.4995412 C214.356762,76.0753752 218.287111,76.0753752 220.711277,78.4995412 C223.135443,80.9237071 223.135443,84.8540568 220.711277,87.2782227 C210.773798,97.2157024 198.024757,102.061072 183.378136,102.608659 C170.542708,103.088532 157.024317,100.294523 143.621344,95.3668706 C139.321494,93.7860148 135.34192,92.0922405 131.771393,90.3940789 C111.292975,108.290943 90.4882542,110.84711 72.0810415,103.863124 C68.6452493,102.559531 66.1157172,101.21762 64.6163213,100.224457 C61.3441681,98.0570629 60.8796533,93.4349078 63.6550921,90.6597463 L125.772978,28.5480681 C162.505804,-8.18475851 222.055043,-8.18475851 258.787869,28.5480681 C295.520696,65.2808946 295.520696,124.830133 258.81884,161.531769 L250.985019,169.477325 C248.578079,171.918595 244.647827,171.946426 242.206557,169.539486 C239.765287,167.132546 239.737456,163.202294 242.144396,160.761024 L250.009188,152.784278 C281.893682,120.899784 281.893682,69.2112443 250.009188,37.3267496 C218.124693,5.44225504 166.436154,5.44225504 134.55144,37.326969 L78.8064647,93.0663737 C93.3213438,97.6985541 109.388647,94.6231585 125.772978,78.2388276 Z" id="Shape"></path>
        </g>
    </g>
</svg>
