<?xml version="1.0" encoding="UTF-8"?>
<svg width="809px" height="107px" viewBox="0 0 809 107" version="1.1" xmlns="http://www.w3.org/2000/svg" xmlns:xlink="http://www.w3.org/1999/xlink">
    <!-- Generator: Sketch 48.2 (47327) - http://www.bohemiancoding.com/sketch -->
    <title>goodfriends_logo</title>
    <desc>Created with Sketch.</desc>
    <defs></defs>
    <g id="Good-Friends-Logo" stroke="none" stroke-width="1" fill="none" fill-rule="evenodd" transform="translate(-317.000000, -444.000000)">
        <path d="M367.486328,550.588867 C352.675056,550.588867 340.598354,545.518931 331.255859,535.378906 C321.913365,525.238882 317.242188,512.057047 317.242188,495.833008 C317.242188,480.79387 321.924758,468.466519 331.290039,458.850586 C340.65532,449.234652 352.675057,444.426758 367.349609,444.426758 C372.544948,444.426758 377.740208,445.110345 382.935547,446.477539 C388.130885,447.844733 390.774088,448.52832 390.865234,448.52832 C391.776697,448.52832 392.961581,448.334637 394.419922,447.947266 C395.878263,447.559894 396.880857,447.366211 397.427734,447.366211 C399.524099,447.366211 401.244459,449.132144 402.588867,452.664062 C403.933275,456.195981 404.605469,460.696262 404.605469,466.165039 C404.605469,468.170257 404.275068,469.719721 403.614258,470.813477 C402.953447,471.907232 402.030605,472.454102 400.845703,472.454102 C399.022777,472.454102 397.427741,470.722348 396.060547,467.258789 C395.149084,464.980132 394.305993,463.248378 393.53125,462.063477 C391.161446,458.599918 387.834657,456.01368 383.550781,454.304688 C379.266906,452.595695 373.957714,451.741211 367.623047,451.741211 C356.001895,451.741211 346.989941,455.227504 340.586914,462.200195 C334.183887,469.172886 330.982422,478.993752 330.982422,491.663086 C330.982422,497.906607 331.722974,503.956351 333.204102,509.8125 C334.685229,515.668649 336.792955,520.852517 339.527344,525.364258 C342.94533,531.106474 347.217748,535.504217 352.344727,538.557617 C357.471705,541.611018 363.088511,543.137695 369.195312,543.137695 C375.985711,543.137695 381.408834,541.166686 385.464844,537.224609 C389.520854,533.282532 391.548828,528.030306 391.548828,521.467773 C391.548828,518.459946 391.286786,516.340826 390.762695,515.110352 C390.238604,513.879877 389.315762,513.105145 387.994141,512.786133 C386.854812,512.512694 385.328135,512.262045 383.414062,512.03418 C379.17576,511.532875 377.033854,510.097343 376.988281,507.727539 C376.988281,505.950186 378.503566,504.662764 381.53418,503.865234 C384.564794,503.067704 389.63473,502.668945 396.744141,502.668945 C404.035844,502.668945 409.174139,503.067704 412.15918,503.865234 C415.144221,504.662764 416.636719,505.950186 416.636719,507.727539 C416.636719,510.097343 414.039088,511.692379 408.84375,512.512695 C408.11458,512.649415 407.56771,512.74056 407.203125,512.786133 C406.610674,512.922852 406.109377,513.298825 405.699219,513.914062 C405.28906,514.5293 404.878908,515.543287 404.46875,516.956055 C404.377604,517.229494 403.944665,519.451151 403.169922,523.621094 C402.395178,527.791036 401.233081,531.402654 399.683594,534.456055 C396.949205,539.742539 392.859077,543.752916 387.413086,546.487305 C381.967095,549.221693 375.324909,550.588867 367.486328,550.588867 Z M428.650391,510.256836 C428.650391,519.918343 430.9518,527.904916 435.554688,534.216797 C440.157575,540.528677 445.876919,543.68457 452.712891,543.68457 C459.685582,543.68457 465.16567,541.178085 469.15332,536.165039 C473.14097,531.151993 475.134766,524.202193 475.134766,515.31543 C475.134766,506.064081 472.742211,498.362335 467.957031,492.209961 C463.171851,486.057586 457.201859,482.981445 450.046875,482.981445 C443.757781,482.981445 438.619486,485.487931 434.631836,490.500977 C430.644186,495.514022 428.650391,502.099243 428.650391,510.256836 Z M416.345703,514.290039 C416.345703,503.443631 419.866176,494.40889 426.907227,487.185547 C433.948277,479.962203 442.732369,476.350586 453.259766,476.350586 C463.285857,476.350586 471.534473,479.665982 478.005859,486.296875 C484.477246,492.927768 487.712891,501.370066 487.712891,511.624023 C487.712891,522.607151 484.226597,531.755823 477.253906,539.070312 C470.281215,546.384802 461.645234,550.041992 451.345703,550.041992 C441.410758,550.041992 433.093783,546.612665 426.394531,539.753906 C419.695279,532.895148 416.345703,524.407277 416.345703,514.290039 Z M507.587891,510.256836 C507.587891,519.918343 509.8893,527.904916 514.492188,534.216797 C519.095075,540.528677 524.814419,543.68457 531.650391,543.68457 C538.623082,543.68457 544.10317,541.178085 548.09082,536.165039 C552.07847,531.151993 554.072266,524.202193 554.072266,515.31543 C554.072266,506.064081 551.679711,498.362335 546.894531,492.209961 C542.109351,486.057586 536.139359,482.981445 528.984375,482.981445 C522.695281,482.981445 517.556986,485.487931 513.569336,490.500977 C509.581686,495.514022 507.587891,502.099243 507.587891,510.256836 Z M495.283203,514.290039 C495.283203,503.443631 498.803676,494.40889 505.844727,487.185547 C512.885777,479.962203 521.669869,476.350586 532.197266,476.350586 C542.223357,476.350586 550.471973,479.665982 556.943359,486.296875 C563.414746,492.927768 566.650391,501.370066 566.650391,511.624023 C566.650391,522.607151 563.164097,531.755823 556.191406,539.070312 C549.218715,546.384802 540.582734,550.041992 530.283203,550.041992 C520.348258,550.041992 512.031283,546.612665 505.332031,539.753906 C498.632779,532.895148 495.283203,524.407277 495.283203,514.290039 Z M628.634766,466.438477 C628.634766,462.564759 628.418296,459.830412 627.985352,458.235352 C627.552407,456.640292 626.83464,455.68327 625.832031,455.364258 C625.3763,455.227538 624.578782,455.090821 623.439453,454.954102 C620.750638,454.680663 619.40625,453.700855 619.40625,452.014648 C619.40625,451.057612 619.827795,450.214522 620.670898,449.485352 C621.514002,448.756181 622.915355,448.049808 624.875,447.366211 C627.472669,446.409175 629.899403,445.657229 632.155273,445.110352 C634.411144,444.563474 636.131504,444.290039 637.316406,444.290039 C638.592454,444.290039 639.469724,444.643226 639.948242,445.349609 C640.42676,446.055993 640.666016,447.388988 640.666016,449.348633 C640.666016,451.217132 640.438153,457.859318 639.982422,469.275391 C639.52669,480.691463 639.298828,491.184522 639.298828,500.754883 C639.298828,514.153387 639.435546,523.495742 639.708984,528.782227 C639.982423,534.068711 640.460934,537.235997 641.144531,538.28418 C641.509116,538.876631 642.899076,539.343748 645.314453,539.685547 C647.72983,540.027345 648.9375,540.99576 648.9375,542.59082 C648.9375,544.18588 647.012064,545.872061 643.161133,547.649414 C639.310202,549.426767 635.653012,550.31543 632.189453,550.31543 C630.913405,550.31543 630.024742,549.962243 629.523438,549.255859 C629.022133,548.549476 628.771484,547.216481 628.771484,545.256836 L628.771484,543.000977 C628.771484,542.271806 628.725912,541.770509 628.634766,541.49707 C628.543619,541.223631 628.361329,541.086914 628.087891,541.086914 C627.449867,541.086914 626.4017,541.633784 624.943359,542.727539 C624.350908,543.183271 623.91797,543.502278 623.644531,543.68457 C620.682277,545.780935 617.788426,547.26204 614.962891,548.12793 C612.137356,548.993819 608.901711,549.426758 605.255859,549.426758 C596.14123,549.426758 588.690133,546.213899 582.902344,539.788086 C577.114554,533.362273 574.220703,524.954154 574.220703,514.563477 C574.220703,503.717068 577.490527,494.682328 584.030273,487.458984 C590.57002,480.235641 598.670525,476.624023 608.332031,476.624023 C614.438833,476.624023 620.249321,478.127915 625.763672,481.135742 C626.583988,481.591474 627.085286,481.819336 627.267578,481.819336 C627.677736,481.819336 628.008137,481.466149 628.258789,480.759766 C628.509441,480.053382 628.634766,479.062181 628.634766,477.786133 L628.634766,466.438477 Z M628.634766,501.848633 C628.634766,495.878551 627.062516,491.332698 623.917969,488.210938 C620.773422,485.089177 616.193389,483.52832 610.177734,483.52832 C603.250616,483.52832 597.645204,486.296847 593.361328,491.833984 C589.077453,497.371121 586.935547,504.674108 586.935547,513.743164 C586.935547,522.08305 588.917949,528.793594 592.882812,533.875 C596.847676,538.956406 602.042937,541.49707 608.46875,541.49707 C611.431004,541.49707 614.438787,540.904628 617.492188,539.719727 C620.545588,538.534825 623.188791,536.917002 625.421875,534.866211 C626.606777,533.863602 627.438474,532.75847 627.916992,531.550781 C628.39551,530.343093 628.634766,528.417656 628.634766,525.774414 L628.634766,501.848633 Z M734.830078,500.00293 L716.373047,500.00293 C715.005853,500.00293 714.105796,500.413082 713.672852,501.233398 C713.239907,502.053715 713.023438,503.853827 713.023438,506.633789 L713.023438,515.862305 C713.023438,523.837605 713.228514,529.556949 713.638672,533.020508 C714.04883,536.484067 714.732417,538.512041 715.689453,539.104492 C716.37305,539.51465 717.512362,539.993161 719.107422,540.540039 C721.932957,541.451502 723.345703,542.568027 723.345703,543.889648 C723.345703,545.575855 722.081067,546.806311 719.551758,547.581055 C717.022448,548.355798 712.886747,548.743164 707.144531,548.743164 C701.356742,548.743164 697.221041,548.367191 694.737305,547.615234 C692.253568,546.863277 691.011719,545.621428 691.011719,543.889648 C691.011719,542.568027 692.321927,541.474288 694.942383,540.608398 C697.562839,539.742509 699.055337,539.058922 699.419922,538.557617 C700.149092,537.646154 700.661782,534.319365 700.958008,528.577148 C701.254233,522.834932 701.402344,512.33048 701.402344,497.063477 C701.402344,481.933193 701.254233,471.519885 700.958008,465.823242 C700.661782,460.126599 700.149092,456.822596 699.419922,455.911133 C699.055337,455.409828 697.562839,454.726241 694.942383,453.860352 C692.321927,452.994462 691.011719,451.923509 691.011719,450.647461 C691.011719,449.052401 691.888989,447.901696 693.643555,447.195312 C695.398121,446.488929 698.348938,446.135742 702.496094,446.135742 L749.9375,446.135742 C752.216157,446.135742 754.540353,445.90788 756.910156,445.452148 C759.27996,444.996417 760.510416,444.768555 760.601562,444.768555 C762.470061,444.768555 763.939773,446.147122 765.010742,448.904297 C766.081711,451.661472 766.617188,455.455379 766.617188,460.286133 C766.617188,462.109059 766.29818,463.521805 765.660156,464.524414 C765.022132,465.527023 764.133469,466.02832 762.994141,466.02832 C761.809239,466.02832 760.487638,464.729505 759.029297,462.131836 C758.573565,461.357092 758.208986,460.741864 757.935547,460.286133 C756.568353,458.053049 754.961923,456.514978 753.116211,455.671875 C751.270499,454.828772 748.501972,454.407227 744.810547,454.407227 L726.832031,454.407227 C722.502583,454.407227 719.460621,454.60091 717.706055,454.988281 C715.951489,455.375653 714.891929,456.070633 714.527344,457.073242 C714.026039,458.394863 713.672853,460.969707 713.467773,464.797852 C713.262694,468.625996 713.160156,475.666941 713.160156,485.920898 L713.160156,487.014648 C713.160156,489.430025 713.342446,490.876951 713.707031,491.355469 C714.071616,491.833987 714.960279,492.073242 716.373047,492.073242 L734.830078,492.073242 C738.020198,492.073242 740.253249,491.583338 741.529297,490.603516 C742.805345,489.623693 743.602863,487.789401 743.921875,485.100586 C743.967448,484.736001 744.035807,484.211917 744.126953,483.52832 C744.719404,479.244445 746.018219,477.102539 748.023438,477.102539 C749.755217,477.102539 750.951494,478.27603 751.612305,480.623047 C752.273115,482.970064 752.603516,488.131145 752.603516,496.106445 C752.603516,504.127319 752.273115,509.311186 751.612305,511.658203 C750.951494,514.00522 749.755217,515.178711 748.023438,515.178711 C746.018219,515.133138 744.719404,512.968446 744.126953,508.68457 C744.035807,508.000973 743.967448,507.47689 743.921875,507.112305 C743.602863,504.423489 742.793952,502.566411 741.495117,501.541016 C740.196283,500.51562 737.974625,500.00293 734.830078,500.00293 Z M785.466797,489.954102 C788.383478,485.487933 791.471012,482.058606 794.729492,479.666016 C797.987972,477.273426 801.166651,476.077148 804.265625,476.077148 C806.817721,476.077148 808.879875,476.874667 810.452148,478.469727 C812.024422,480.064787 812.810547,482.16112 812.810547,484.758789 C812.810547,487.037446 812.092781,488.91731 810.657227,490.398438 C809.221673,491.879565 807.410167,492.620117 805.222656,492.620117 C803.263011,492.620117 801.645189,492.004889 800.369141,490.774414 C799.093093,489.543939 798.295575,487.834972 797.976562,485.647461 C793.145809,487.196948 789.78484,489.646468 787.893555,492.996094 C786.002269,496.34572 785.056641,503.603134 785.056641,514.768555 C785.056641,523.154013 785.170572,529.203757 785.398438,532.917969 C785.626303,536.63218 785.990883,538.831051 786.492188,539.514648 C787.175785,540.562831 788.770821,541.269204 791.277344,541.633789 C792.09766,541.724935 792.758461,541.81608 793.259766,541.907227 C794.262375,542.089519 795.059893,542.408526 795.652344,542.864258 C796.244795,543.319989 796.541016,543.889645 796.541016,544.573242 C796.541016,546.031583 795.2422,547.091143 792.644531,547.751953 C790.046862,548.412764 785.990913,548.743164 780.476562,548.743164 C775.554663,548.743164 772.011404,548.412764 769.84668,547.751953 C767.681955,547.091143 766.599609,546.031583 766.599609,544.573242 C766.599609,543.38834 767.556631,542.499677 769.470703,541.907227 C771.384775,541.314776 772.569659,540.790692 773.025391,540.334961 C773.754561,539.696937 774.267251,538.215832 774.563477,535.891602 C774.859702,533.567371 775.007812,529.511422 775.007812,523.723633 C775.007812,515.885052 774.905274,509.379583 774.700195,504.207031 C774.495116,499.034479 774.164716,495.195 773.708984,492.688477 C773.435546,490.774404 772.979821,489.464196 772.341797,488.757812 C771.703773,488.051429 770.313813,487.698242 768.171875,487.698242 L766.873047,487.698242 C766.143877,487.698242 765.494469,487.424807 764.924805,486.87793 C764.35514,486.331052 764.070312,485.670251 764.070312,484.895508 C764.070312,484.029618 764.412106,483.243493 765.095703,482.537109 C765.7793,481.830726 767.032543,481.044601 768.855469,480.178711 C771.179699,478.948236 773.41275,477.957035 775.554688,477.205078 C777.696625,476.453121 779.200517,476.077148 780.066406,476.077148 C781.296881,476.077148 782.253903,477.068349 782.9375,479.050781 C783.621097,481.033213 784.190753,484.530899 784.646484,489.543945 L785.466797,489.954102 Z M821.132812,453.586914 C821.132812,451.399403 821.861972,449.565112 823.320312,448.083984 C824.778653,446.602857 826.578765,445.862305 828.720703,445.862305 C830.862641,445.862305 832.605788,446.500319 833.950195,447.776367 C835.294603,449.052415 835.966797,450.693024 835.966797,452.698242 C835.966797,454.749034 835.237638,456.503573 833.779297,457.961914 C832.320956,459.420255 830.54363,460.149414 828.447266,460.149414 C826.396474,460.149414 824.664721,459.522793 823.251953,458.269531 C821.839186,457.01627 821.132812,455.455413 821.132812,453.586914 Z M823.798828,521.604492 C823.798828,510.621364 823.662111,502.589218 823.388672,497.507812 C823.115233,492.426407 822.659508,489.407231 822.021484,488.450195 C821.611326,487.812171 820.19858,487.322267 817.783203,486.980469 C815.367826,486.63867 814.160156,485.670255 814.160156,484.075195 C814.160156,483.163732 814.536129,482.354821 815.288086,481.648438 C816.040043,480.942054 817.350251,480.201501 819.21875,479.426758 C821.497407,478.515295 823.764637,477.774742 826.020508,477.205078 C828.276378,476.635414 830.065098,476.350586 831.386719,476.350586 C832.617194,476.350586 833.48307,476.703773 833.984375,477.410156 C834.48568,478.11654 834.736328,479.449534 834.736328,481.40918 C834.736328,481.864911 834.713542,483.186512 834.667969,485.374023 C834.348957,497.997784 834.189453,510.78086 834.189453,523.723633 C834.189453,529.92158 834.326171,534.091461 834.599609,536.233398 C834.873048,538.375336 835.328773,539.74251 835.966797,540.334961 C836.468101,540.790692 837.675772,541.314776 839.589844,541.907227 C841.503916,542.499677 842.460938,543.38834 842.460938,544.573242 C842.460938,545.98601 841.389985,547.034176 839.248047,547.717773 C837.106109,548.401371 833.733747,548.743164 829.130859,548.743164 C824.300106,548.743164 820.80242,548.412764 818.637695,547.751953 C816.472971,547.091143 815.390625,546.031583 815.390625,544.573242 C815.390625,543.38834 816.347647,542.499677 818.261719,541.907227 C820.175791,541.314776 821.383461,540.790692 821.884766,540.334961 C822.568363,539.696937 823.058267,538.067721 823.354492,535.447266 C823.650718,532.82681 823.798828,528.212598 823.798828,521.604492 Z M864.660156,504.37793 L899.25,504.37793 C900.298182,504.37793 901.004555,504.184247 901.369141,503.796875 C901.733726,503.409503 901.916016,502.668951 901.916016,501.575195 C901.916016,496.243137 900.115903,491.811216 896.515625,488.279297 C892.915347,484.747378 888.3581,482.981445 882.84375,482.981445 C879.927069,482.981445 877.158542,483.61946 874.538086,484.895508 C871.91763,486.171556 869.604828,487.994454 867.599609,490.364258 C866.004549,492.27833 864.717127,494.351877 863.737305,496.584961 C862.757482,498.818045 862.267578,500.754875 862.267578,502.395508 C862.267578,503.124678 862.438475,503.637368 862.780273,503.933594 C863.122072,504.229819 863.748693,504.37793 864.660156,504.37793 Z M907.521484,510.256836 L864.386719,510.256836 C863.475256,510.256836 862.848635,510.439126 862.506836,510.803711 C862.165037,511.168296 861.994141,511.874669 861.994141,512.922852 C861.994141,521.44503 864.249977,528.429009 868.761719,533.875 C873.27346,539.320991 879.038376,542.043945 886.056641,542.043945 C888.791029,542.043945 891.445625,541.588221 894.020508,540.676758 C896.59539,539.765295 898.930979,538.443694 901.027344,536.711914 C902.121099,535.846024 903.636384,534.319347 905.573242,532.131836 C907.510101,529.944325 909.139316,528.850586 910.460938,528.850586 C911.235681,528.850586 911.873695,529.089841 912.375,529.568359 C912.876305,530.046877 913.126953,530.650713 913.126953,531.379883 C913.126953,532.382492 912.819339,533.487624 912.204102,534.695312 C911.588864,535.903001 910.711594,537.14485 909.572266,538.420898 C906.15428,542.203469 902.200869,545.085928 897.711914,547.068359 C893.222959,549.050791 888.403672,550.041992 883.253906,550.041992 C873.501253,550.041992 865.423535,546.658237 859.020508,539.890625 C852.617481,533.123013 849.416016,524.58957 849.416016,514.290039 C849.416016,503.352484 852.765592,494.294958 859.464844,487.117188 C866.164096,479.939417 874.572215,476.350586 884.689453,476.350586 C893.439497,476.350586 900.389297,478.811499 905.539063,483.733398 C910.688828,488.655298 913.263672,495.308877 913.263672,503.694336 C913.263672,506.428725 912.967451,508.206051 912.375,509.026367 C911.782549,509.846684 910.164727,510.256836 907.521484,510.256836 Z M938.949219,487.288086 C938.949219,488.108403 939.017577,488.643879 939.154297,488.894531 C939.291016,489.145184 939.496092,489.270508 939.769531,489.270508 C940.407555,489.270508 941.341791,488.427417 942.572266,486.741211 C943.574875,485.328443 944.417965,484.257491 945.101562,483.52832 C947.2435,481.067371 949.727199,479.233079 952.552734,478.025391 C955.378269,476.817702 958.591128,476.213867 962.191406,476.213867 C968.708366,476.213867 973.91502,477.888655 977.811523,481.238281 C981.708027,484.587907 984.430982,489.726202 985.980469,496.65332 C986.253908,497.883795 986.458984,499.421866 986.595703,501.267578 C986.732423,503.11329 986.800781,505.585596 986.800781,508.68457 C986.800781,509.687179 986.777995,511.305002 986.732422,513.538086 C986.686849,515.77117 986.664062,517.52571 986.664062,518.801758 C986.664062,521.171561 986.698242,523.678047 986.766602,526.321289 C986.834961,528.964531 986.937499,531.721665 987.074219,534.592773 C987.165365,536.689138 987.393227,538.15885 987.757812,539.001953 C988.122398,539.845056 988.760412,540.540036 989.671875,541.086914 C990.03646,541.31478 990.742833,541.565428 991.791016,541.838867 C993.978527,542.431318 995.072266,543.342767 995.072266,544.573242 C995.072266,546.031583 994.001313,547.091143 991.859375,547.751953 C989.717437,548.412764 986.208358,548.743164 981.332031,548.743164 C976.501278,548.743164 973.014985,548.412764 970.873047,547.751953 C968.731109,547.091143 967.660156,546.031583 967.660156,544.573242 C967.660156,543.38834 968.708323,542.465498 970.804688,541.804688 C972.901052,541.143877 974.222654,540.380538 974.769531,539.514648 C975.225263,538.785478 975.54427,536.757504 975.726562,533.430664 C975.908855,530.103825 976,522.197003 976,509.709961 C976,501.051063 974.780937,494.875995 972.342773,491.18457 C969.90461,487.493146 965.905627,485.647461 960.345703,485.647461 C956.745425,485.647461 953.395849,486.444979 950.296875,488.040039 C947.197901,489.635099 944.440767,492.004867 942.025391,495.149414 C940.931635,496.471035 940.168296,497.95214 939.735352,499.592773 C939.302407,501.233407 939.085938,503.671533 939.085938,506.907227 L939.085938,511.96582 C939.085938,522.219778 939.177082,529.180971 939.359375,532.849609 C939.541668,536.518248 939.860675,538.739905 940.316406,539.514648 C940.863284,540.380538 942.196278,541.143877 944.31543,541.804688 C946.434581,542.465498 947.494141,543.38834 947.494141,544.573242 C947.494141,546.031583 946.411795,547.091143 944.24707,547.751953 C942.082346,548.412764 938.58466,548.743164 933.753906,548.743164 C928.87758,548.743164 925.345714,548.412764 923.158203,547.751953 C920.970692,547.091143 919.876953,546.031583 919.876953,544.573242 C919.876953,543.38834 920.936513,542.465498 923.055664,541.804688 C925.174815,541.143877 926.50781,540.380538 927.054688,539.514648 C927.555992,538.603186 927.909179,536.108093 928.114258,532.029297 C928.319337,527.9505 928.421875,521.262742 928.421875,511.96582 C928.421875,504.901983 928.273765,499.433288 927.977539,495.55957 C927.681314,491.685853 927.236982,489.316085 926.644531,488.450195 C926.234373,487.812171 924.821627,487.322267 922.40625,486.980469 C919.990873,486.63867 918.783203,485.670255 918.783203,484.075195 C918.783203,482.434562 920.70864,480.714202 924.55957,478.914062 C928.410501,477.113923 932.090477,476.213867 935.599609,476.213867 C936.830084,476.213867 937.695961,476.578447 938.197266,477.307617 C938.69857,478.036788 938.949219,479.403961 938.949219,481.40918 L938.949219,487.288086 Z M1054.52734,466.438477 C1054.52734,462.564759 1054.31087,459.830412 1053.87793,458.235352 C1053.44498,456.640292 1052.72722,455.68327 1051.72461,455.364258 C1051.26888,455.227538 1050.47136,455.090821 1049.33203,454.954102 C1046.64322,454.680663 1045.29883,453.700855 1045.29883,452.014648 C1045.29883,451.057612 1045.72037,450.214522 1046.56348,449.485352 C1047.40658,448.756181 1048.80793,448.049808 1050.76758,447.366211 C1053.36525,446.409175 1055.79198,445.657229 1058.04785,445.110352 C1060.30372,444.563474 1062.02408,444.290039 1063.20898,444.290039 C1064.48503,444.290039 1065.3623,444.643226 1065.84082,445.349609 C1066.31934,446.055993 1066.55859,447.388988 1066.55859,449.348633 C1066.55859,451.217132 1066.33073,457.859318 1065.875,469.275391 C1065.41927,480.691463 1065.19141,491.184522 1065.19141,500.754883 C1065.19141,514.153387 1065.32812,523.495742 1065.60156,528.782227 C1065.875,534.068711 1066.35351,537.235997 1067.03711,538.28418 C1067.40169,538.876631 1068.79165,539.343748 1071.20703,539.685547 C1073.62241,540.027345 1074.83008,540.99576 1074.83008,542.59082 C1074.83008,544.18588 1072.90464,545.872061 1069.05371,547.649414 C1065.20278,549.426767 1061.54559,550.31543 1058.08203,550.31543 C1056.80598,550.31543 1055.91732,549.962243 1055.41602,549.255859 C1054.91471,548.549476 1054.66406,547.216481 1054.66406,545.256836 L1054.66406,543.000977 C1054.66406,542.271806 1054.61849,541.770509 1054.52734,541.49707 C1054.4362,541.223631 1054.25391,541.086914 1053.98047,541.086914 C1053.34244,541.086914 1052.29428,541.633784 1050.83594,542.727539 C1050.24349,543.183271 1049.81055,543.502278 1049.53711,543.68457 C1046.57485,545.780935 1043.681,547.26204 1040.85547,548.12793 C1038.02993,548.993819 1034.79429,549.426758 1031.14844,549.426758 C1022.03381,549.426758 1014.58271,546.213899 1008.79492,539.788086 C1003.00713,533.362273 1000.11328,524.954154 1000.11328,514.563477 C1000.11328,503.717068 1003.38311,494.682328 1009.92285,487.458984 C1016.4626,480.235641 1024.5631,476.624023 1034.22461,476.624023 C1040.33141,476.624023 1046.1419,478.127915 1051.65625,481.135742 C1052.47657,481.591474 1052.97786,481.819336 1053.16016,481.819336 C1053.57031,481.819336 1053.90071,481.466149 1054.15137,480.759766 C1054.40202,480.053382 1054.52734,479.062181 1054.52734,477.786133 L1054.52734,466.438477 Z M1054.52734,501.848633 C1054.52734,495.878551 1052.95509,491.332698 1049.81055,488.210938 C1046.666,485.089177 1042.08597,483.52832 1036.07031,483.52832 C1029.14319,483.52832 1023.53778,486.296847 1019.25391,491.833984 C1014.97003,497.371121 1012.82813,504.674108 1012.82813,513.743164 C1012.82813,522.08305 1014.81053,528.793594 1018.77539,533.875 C1022.74025,538.956406 1027.93551,541.49707 1034.36133,541.49707 C1037.32358,541.49707 1040.33136,540.904628 1043.38477,539.719727 C1046.43817,538.534825 1049.08137,536.917002 1051.31445,534.866211 C1052.49935,533.863602 1053.33105,532.75847 1053.80957,531.550781 C1054.28809,530.343093 1054.52734,528.417656 1054.52734,525.774414 L1054.52734,501.848633 Z M1111.79492,477.786133 C1112.70638,477.239255 1113.46972,476.840496 1114.08496,476.589844 C1114.7002,476.339191 1115.23567,476.213867 1115.69141,476.213867 C1117.37761,476.213867 1119.06379,477.774724 1120.75,480.896484 C1122.43621,484.018245 1123.2793,487.402 1123.2793,491.047852 C1123.2793,492.597338 1122.96029,493.805009 1122.32227,494.670898 C1121.68424,495.536788 1120.81836,495.969727 1119.72461,495.969727 C1118.12955,495.969727 1116.7168,494.602553 1115.48633,491.868164 C1115.21289,491.275713 1115.00781,490.842775 1114.87109,490.569336 C1113.27603,487.196923 1111.56707,484.9183 1109.74414,483.733398 C1107.92121,482.548497 1105.4603,481.956055 1102.36133,481.956055 C1099.12563,481.956055 1096.37989,482.970042 1094.12402,484.998047 C1091.86815,487.026052 1090.74023,489.521144 1090.74023,492.483398 C1090.74023,497.769883 1096.50515,502.873999 1108.03516,507.795898 C1110.31381,508.798508 1112.06835,509.573239 1113.29883,510.120117 C1117.26369,511.89747 1120.35123,514.438135 1122.56152,517.742188 C1124.77182,521.04624 1125.87695,524.749003 1125.87695,528.850586 C1125.87695,535.13968 1123.62112,540.266582 1119.10938,544.231445 C1114.59763,548.196309 1108.74157,550.178711 1101.54102,550.178711 C1099.26236,550.178711 1096.67612,549.802738 1093.78223,549.050781 C1090.88833,548.298824 1089.14519,547.922852 1088.55273,547.922852 C1087.91471,547.922852 1087.06023,548.1735 1085.98926,548.674805 C1084.91829,549.176109 1084.17774,549.426758 1083.76758,549.426758 C1082.49153,549.426758 1081.14714,547.763363 1079.73438,544.436523 C1078.32161,541.109684 1077.61523,537.646177 1077.61523,534.045898 C1077.61523,532.678704 1077.99121,531.573572 1078.74316,530.730469 C1079.49512,529.887366 1080.46354,529.46582 1081.64844,529.46582 C1082.97006,529.46582 1084.42838,530.878567 1086.02344,533.704102 C1086.61589,534.797857 1087.07161,535.618161 1087.39062,536.165039 C1088.84897,538.671562 1090.79719,540.608392 1093.23535,541.975586 C1095.67351,543.34278 1098.39647,544.026367 1101.4043,544.026367 C1105.55145,544.026367 1108.92382,542.909842 1111.52148,540.676758 C1114.11915,538.443674 1115.41797,535.572609 1115.41797,532.063477 C1115.41797,529.283515 1114.66602,526.92514 1113.16211,524.988281 C1111.6582,523.051423 1109.19728,521.262704 1105.7793,519.62207 C1104.54882,519.029619 1102.61199,518.232101 1099.96875,517.229492 C1092.99606,514.495104 1087.9603,511.646825 1084.86133,508.68457 C1083.08398,506.998364 1081.72819,505.061534 1080.79395,502.874023 C1079.8597,500.686512 1079.39258,498.339531 1079.39258,495.833008 C1079.39258,490.136365 1081.5117,485.442401 1085.75,481.750977 C1089.9883,478.059552 1095.38864,476.213867 1101.95117,476.213867 C1103.31837,476.213867 1104.82226,476.350585 1106.46289,476.624023 C1108.10352,476.897462 1109.88085,477.284828 1111.79492,477.786133 Z" id="goodfriends_logo" fill="#170628"></path>
    </g>
</svg>